0
SECTION
2
HEADER
9
$INSUNITS
70
4
0
ENDSEC
0
SECTION
2
TABLES
0
TABLE
2
LTYPE
0
LTYPE
72
65
70
64
2
CONTINUOUS
3
______
73
0
40
0
0
ENDTAB
0
TABLE
2
LAYER
0
ENDTAB
0
ENDSEC
0
SECTION
2
ENTITIES
0
LINE
8
0
10
258.9656409
20
-122.6101995
11
165.7279046
21
-113.5222141
0
LINE
8
0
10
165.2729728
20
-113.529872
11
147.0782045
21
-115.9239205
0
LINE
8
0
10
145.9715245
20
-115.7533781
11
91.3214286
21
-90.25
0
LINE
8
0
10
90.75
20
-89.9833333
11
90.654229
21
-89.9386402
0
LINE
8
0
10
89.5
20
-88.1262739
11
89.5
21
-70.4197587
0
LINE
8
0
10
89.4996095
20
-70.3802407
11
87.539821
21
28.7850554
0
LINE
8
0
10
89.5151899
20
30.8244265
11
186.3568186
21
31.9982645
0
LINE
8
0
10
186.6419682
20
31.98132
11
260.7443574
21
22.2310056
0
LINE
8
0
10
262.4833601
20
20.2293032
11
261.1595753
21
-120.6384268
0
ARC
8
0
10
165.5338818
20
-115.5127806
40
2
50
84.4329008
51
97.4958569
0
ARC
8
0
10
146.8172955
20
-113.9410119
40
2
50
244.9831038
51
277.4958569
0
ARC
8
0
10
91.5
20
-88.1262739
40
2
50
180
51
244.9831038
0
ARC
8
0
10
87.5
20
-70.4197587
40
2
50
0
51
1.132181
0
ARC
8
0
10
89.5394305
20
28.8245734
40
2
50
90.6944591
51
181.132181
0
ARC
8
0
10
186.3810592
20
29.9984114
40
2
50
82.5041431
51
90.6944591
0
ARC
8
0
10
260.4834484
20
20.248097
40
2
50
359.4615893
51
82.5041431
0
ARC
8
0
10
259.1596636
20
-120.619633
40
2
50
264.4329008
51
359.4615893
0
LINE
8
0
10
91.3214286
20
-90.25
11
109.25
21
-90.25
0
LINE
8
0
10
109.25
20
-90.25
11
109.25
21
-71.75
0
LINE
8
0
10
109.25
20
-71.75
11
90.75
21
-71.75
0
LINE
8
0
10
90.75
20
-71.75
11
90.75
21
-89.9833333
0
LINE
8
0
10
90.75
20
-71.25
11
109.25
21
-71.25
0
LINE
8
0
10
109.25
20
-71.25
11
109.25
21
-52.75
0
LINE
8
0
10
109.25
20
-52.75
11
90.75
21
-52.75
0
LINE
8
0
10
90.75
20
-52.75
11
90.75
21
-71.25
0
LINE
8
0
10
109.75
20
-90.25
11
128.25
21
-90.25
0
LINE
8
0
10
128.25
20
-90.25
11
128.25
21
-71.75
0
LINE
8
0
10
128.25
20
-71.75
11
109.75
21
-71.75
0
LINE
8
0
10
109.75
20
-71.75
11
109.75
21
-90.25
0
LINE
8
0
10
109.75
20
-71.25
11
128.25
21
-71.25
0
LINE
8
0
10
128.25
20
-71.25
11
128.25
21
-52.75
0
LINE
8
0
10
128.25
20
-52.75
11
109.75
21
-52.75
0
LINE
8
0
10
109.75
20
-52.75
11
109.75
21
-71.25
0
LINE
8
0
10
109.75
20
-52.25
11
128.25
21
-52.25
0
LINE
8
0
10
128.25
20
-52.25
11
128.25
21
-33.75
0
LINE
8
0
10
128.25
20
-33.75
11
109.75
21
-33.75
0
LINE
8
0
10
109.75
20
-33.75
11
109.75
21
-52.25
0
LINE
8
0
10
109.75
20
-14.25
11
128.25
21
-14.25
0
LINE
8
0
10
128.25
20
-14.25
11
128.25
21
4.25
0
LINE
8
0
10
128.25
20
4.25
11
109.75
21
4.25
0
LINE
8
0
10
109.75
20
4.25
11
109.75
21
-14.25
0
LINE
8
0
10
109.75
20
4.75
11
128.25
21
4.75
0
LINE
8
0
10
128.25
20
4.75
11
128.25
21
23.25
0
LINE
8
0
10
128.25
20
23.25
11
109.75
21
23.25
0
LINE
8
0
10
109.75
20
23.25
11
109.75
21
4.75
0
LINE
8
0
10
128.75
20
-90.25
11
147.25
21
-90.25
0
LINE
8
0
10
147.25
20
-90.25
11
147.25
21
-71.75
0
LINE
8
0
10
147.25
20
-71.75
11
128.75
21
-71.75
0
LINE
8
0
10
128.75
20
-71.75
11
128.75
21
-90.25
0
LINE
8
0
10
128.75
20
-71.25
11
147.25
21
-71.25
0
LINE
8
0
10
147.25
20
-71.25
11
147.25
21
-52.75
0
LINE
8
0
10
147.25
20
-52.75
11
128.75
21
-52.75
0
LINE
8
0
10
128.75
20
-52.75
11
128.75
21
-71.25
0
LINE
8
0
10
128.75
20
-52.25
11
147.25
21
-52.25
0
LINE
8
0
10
147.25
20
-52.25
11
147.25
21
-33.75
0
LINE
8
0
10
147.25
20
-33.75
11
128.75
21
-33.75
0
LINE
8
0
10
128.75
20
-33.75
11
128.75
21
-52.25
0
LINE
8
0
10
128.75
20
-14.25
11
147.25
21
-14.25
0
LINE
8
0
10
147.25
20
-14.25
11
147.25
21
4.25
0
LINE
8
0
10
147.25
20
4.25
11
128.75
21
4.25
0
LINE
8
0
10
128.75
20
4.25
11
128.75
21
-14.25
0
LINE
8
0
10
128.75
20
4.75
11
147.25
21
4.75
0
LINE
8
0
10
147.25
20
4.75
11
147.25
21
23.25
0
LINE
8
0
10
147.25
20
23.25
11
128.75
21
23.25
0
LINE
8
0
10
128.75
20
23.25
11
128.75
21
4.75
0
LINE
8
0
10
147.75
20
-104.25
11
166.25
21
-104.25
0
LINE
8
0
10
166.25
20
-104.25
11
166.25
21
-85.75
0
LINE
8
0
10
166.25
20
-85.75
11
147.75
21
-85.75
0
LINE
8
0
10
147.75
20
-85.75
11
147.75
21
-104.25
0
LINE
8
0
10
147.75
20
-85.25
11
166.25
21
-85.25
0
LINE
8
0
10
166.25
20
-85.25
11
166.25
21
-66.75
0
LINE
8
0
10
166.25
20
-66.75
11
147.75
21
-66.75
0
LINE
8
0
10
147.75
20
-66.75
11
147.75
21
-85.25
0
LINE
8
0
10
147.75
20
-66.25
11
166.25
21
-66.25
0
LINE
8
0
10
166.25
20
-66.25
11
166.25
21
-47.75
0
LINE
8
0
10
166.25
20
-47.75
11
147.75
21
-47.75
0
LINE
8
0
10
147.75
20
-47.75
11
147.75
21
-66.25
0
LINE
8
0
10
147.75
20
-47.25
11
166.25
21
-47.25
0
LINE
8
0
10
166.25
20
-47.25
11
166.25
21
-28.75
0
LINE
8
0
10
166.25
20
-28.75
11
147.75
21
-28.75
0
LINE
8
0
10
147.75
20
-28.75
11
147.75
21
-47.25
0
LINE
8
0
10
147.75
20
-28.25
11
166.25
21
-28.25
0
LINE
8
0
10
166.25
20
-28.25
11
166.25
21
-9.75
0
LINE
8
0
10
166.25
20
-9.75
11
147.75
21
-9.75
0
LINE
8
0
10
147.75
20
-9.75
11
147.75
21
-28.25
0
LINE
8
0
10
147.75
20
-9.25
11
166.25
21
-9.25
0
LINE
8
0
10
166.25
20
-9.25
11
166.25
21
9.25
0
LINE
8
0
10
166.25
20
9.25
11
147.75
21
9.25
0
LINE
8
0
10
147.75
20
9.25
11
147.75
21
-9.25
0
LINE
8
0
10
147.75
20
9.75
11
166.25
21
9.75
0
LINE
8
0
10
166.25
20
9.75
11
166.25
21
28.25
0
LINE
8
0
10
166.25
20
28.25
11
147.75
21
28.25
0
LINE
8
0
10
147.75
20
28.25
11
147.75
21
9.75
0
LINE
8
0
10
166.75
20
-101.75
11
185.25
21
-101.75
0
LINE
8
0
10
185.25
20
-101.75
11
185.25
21
-83.25
0
LINE
8
0
10
185.25
20
-83.25
11
166.75
21
-83.25
0
LINE
8
0
10
166.75
20
-83.25
11
166.75
21
-101.75
0
LINE
8
0
10
166.75
20
-82.75
11
185.25
21
-82.75
0
LINE
8
0
10
185.25
20
-82.75
11
185.25
21
-64.25
0
LINE
8
0
10
185.25
20
-64.25
11
166.75
21
-64.25
0
LINE
8
0
10
166.75
20
-64.25
11
166.75
21
-82.75
0
LINE
8
0
10
166.75
20
-63.75
11
185.25
21
-63.75
0
LINE
8
0
10
185.25
20
-63.75
11
185.25
21
-45.25
0
LINE
8
0
10
185.25
20
-45.25
11
166.75
21
-45.25
0
LINE
8
0
10
166.75
20
-45.25
11
166.75
21
-63.75
0
LINE
8
0
10
166.75
20
-44.75
11
185.25
21
-44.75
0
LINE
8
0
10
185.25
20
-44.75
11
185.25
21
-26.25
0
LINE
8
0
10
185.25
20
-26.25
11
166.75
21
-26.25
0
LINE
8
0
10
166.75
20
-26.25
11
166.75
21
-44.75
0
LINE
8
0
10
166.75
20
-25.75
11
185.25
21
-25.75
0
LINE
8
0
10
185.25
20
-25.75
11
185.25
21
-7.25
0
LINE
8
0
10
185.25
20
-7.25
11
166.75
21
-7.25
0
LINE
8
0
10
166.75
20
-7.25
11
166.75
21
-25.75
0
LINE
8
0
10
166.75
20
-6.75
11
185.25
21
-6.75
0
LINE
8
0
10
185.25
20
-6.75
11
185.25
21
11.75
0
LINE
8
0
10
185.25
20
11.75
11
166.75
21
11.75
0
LINE
8
0
10
166.75
20
11.75
11
166.75
21
-6.75
0
LINE
8
0
10
166.75
20
12.25
11
185.25
21
12.25
0
LINE
8
0
10
185.25
20
12.25
11
185.25
21
30.75
0
LINE
8
0
10
185.25
20
30.75
11
166.75
21
30.75
0
LINE
8
0
10
166.75
20
30.75
11
166.75
21
12.25
0
LINE
8
0
10
185.75
20
-85.25
11
204.25
21
-85.25
0
LINE
8
0
10
204.25
20
-85.25
11
204.25
21
-66.75
0
LINE
8
0
10
204.25
20
-66.75
11
185.75
21
-66.75
0
LINE
8
0
10
185.75
20
-66.75
11
185.75
21
-85.25
0
LINE
8
0
10
185.75
20
-66.25
11
204.25
21
-66.25
0
LINE
8
0
10
204.25
20
-66.25
11
204.25
21
-47.75
0
LINE
8
0
10
204.25
20
-47.75
11
185.75
21
-47.75
0
LINE
8
0
10
185.75
20
-47.75
11
185.75
21
-66.25
0
LINE
8
0
10
185.75
20
-47.25
11
204.25
21
-47.25
0
LINE
8
0
10
204.25
20
-47.25
11
204.25
21
-28.75
0
LINE
8
0
10
204.25
20
-28.75
11
185.75
21
-28.75
0
LINE
8
0
10
185.75
20
-28.75
11
185.75
21
-47.25
0
LINE
8
0
10
185.75
20
-28.25
11
204.25
21
-28.25
0
LINE
8
0
10
204.25
20
-28.25
11
204.25
21
-9.75
0
LINE
8
0
10
204.25
20
-9.75
11
185.75
21
-9.75
0
LINE
8
0
10
185.75
20
-9.75
11
185.75
21
-28.25
0
LINE
8
0
10
185.75
20
-9.25
11
204.25
21
-9.25
0
LINE
8
0
10
204.25
20
-9.25
11
204.25
21
9.25
0
LINE
8
0
10
204.25
20
9.25
11
185.75
21
9.25
0
LINE
8
0
10
185.75
20
9.25
11
185.75
21
-9.25
0
LINE
8
0
10
185.75
20
9.75
11
204.25
21
9.75
0
LINE
8
0
10
204.25
20
9.75
11
204.25
21
28.25
0
LINE
8
0
10
204.25
20
28.25
11
185.75
21
28.25
0
LINE
8
0
10
185.75
20
28.25
11
185.75
21
9.75
0
LINE
8
0
10
204.75
20
-68.75
11
223.25
21
-68.75
0
LINE
8
0
10
223.25
20
-68.75
11
223.25
21
-50.25
0
LINE
8
0
10
223.25
20
-50.25
11
204.75
21
-50.25
0
LINE
8
0
10
204.75
20
-50.25
11
204.75
21
-68.75
0
LINE
8
0
10
204.75
20
-49.75
11
223.25
21
-49.75
0
LINE
8
0
10
223.25
20
-49.75
11
223.25
21
-31.25
0
LINE
8
0
10
223.25
20
-31.25
11
204.75
21
-31.25
0
LINE
8
0
10
204.75
20
-31.25
11
204.75
21
-49.75
0
LINE
8
0
10
204.75
20
-30.75
11
223.25
21
-30.75
0
LINE
8
0
10
223.25
20
-30.75
11
223.25
21
-12.25
0
LINE
8
0
10
223.25
20
-12.25
11
204.75
21
-12.25
0
LINE
8
0
10
204.75
20
-12.25
11
204.75
21
-30.75
0
LINE
8
0
10
204.75
20
-11.75
11
223.25
21
-11.75
0
LINE
8
0
10
223.25
20
-11.75
11
223.25
21
6.75
0
LINE
8
0
10
223.25
20
6.75
11
204.75
21
6.75
0
LINE
8
0
10
204.75
20
6.75
11
204.75
21
-11.75
0
LINE
8
0
10
204.75
20
7.25
11
223.25
21
7.25
0
LINE
8
0
10
223.25
20
7.25
11
223.25
21
25.75
0
LINE
8
0
10
223.25
20
25.75
11
204.75
21
25.75
0
LINE
8
0
10
204.75
20
25.75
11
204.75
21
7.25
0
LINE
8
0
10
223.75
20
-52.25
11
242.25
21
-52.25
0
LINE
8
0
10
242.25
20
-52.25
11
242.25
21
-33.75
0
LINE
8
0
10
242.25
20
-33.75
11
223.75
21
-33.75
0
LINE
8
0
10
223.75
20
-33.75
11
223.75
21
-52.25
0
LINE
8
0
10
223.75
20
-33.25
11
242.25
21
-33.25
0
LINE
8
0
10
242.25
20
-33.25
11
242.25
21
-14.75
0
LINE
8
0
10
242.25
20
-14.75
11
223.75
21
-14.75
0
LINE
8
0
10
223.75
20
-14.75
11
223.75
21
-33.25
0
LINE
8
0
10
223.75
20
-14.25
11
242.25
21
-14.25
0
LINE
8
0
10
242.25
20
-14.25
11
242.25
21
4.25
0
LINE
8
0
10
242.25
20
4.25
11
223.75
21
4.25
0
LINE
8
0
10
223.75
20
4.25
11
223.75
21
-14.25
0
LINE
8
0
10
223.75
20
4.75
11
242.25
21
4.75
0
LINE
8
0
10
242.25
20
4.75
11
242.25
21
23.25
0
LINE
8
0
10
242.25
20
23.25
11
223.75
21
23.25
0
LINE
8
0
10
223.75
20
23.25
11
223.75
21
4.75
0
LINE
8
0
10
242.75
20
2.25
11
261.25
21
2.25
0
LINE
8
0
10
261.25
20
2.25
11
261.25
21
20.75
0
LINE
8
0
10
261.25
20
20.75
11
242.75
21
20.75
0
LINE
8
0
10
242.75
20
20.75
11
242.75
21
2.25
0
LINE
8
0
10
204.6711099
20
-87.0407377
11
222.5407377
21
-91.8288901
0
LINE
8
0
10
222.5407377
20
-91.8288901
11
227.3288901
21
-73.9592623
0
LINE
8
0
10
227.3288901
20
-73.9592623
11
209.4592623
21
-69.1711099
0
LINE
8
0
10
209.4592623
20
-69.1711099
11
204.6711099
21
-87.0407377
0
LINE
8
0
10
240.4703765
20
-97.3212461
11
249.7203765
21
-81.2997761
0
LINE
8
0
10
249.7203765
20
-81.2997761
11
233.6989065
21
-72.0497761
0
LINE
8
0
10
233.6989065
20
-72.0497761
11
224.4489065
21
-88.0712461
0
LINE
8
0
10
224.4489065
20
-88.0712461
11
240.4703765
21
-97.3212461
0
ENDSEC
0
EOF
