0
SECTION
2
HEADER
9
$INSUNITS
70
4
0
ENDSEC
0
SECTION
2
TABLES
0
TABLE
2
LTYPE
0
LTYPE
72
65
70
64
2
CONTINUOUS
3
______
73
0
40
0
0
ENDTAB
0
TABLE
2
LAYER
0
ENDTAB
0
ENDSEC
0
SECTION
2
ENTITIES
0
LINE
8
0
10
89.5
20
-91.5
11
136.5
21
-91.5
0
LINE
8
0
10
89.5
20
-91.5
11
89.5
21
-51.5
0
LINE
8
0
10
98.5
20
-51.5
11
89.5
21
-51.5
0
LINE
8
0
10
98.5
20
-41.5
11
108.5
21
-41.5
0
LINE
8
0
10
98.5
20
-51.5
11
98.5
21
-41.5
0
LINE
8
0
10
108.5
20
-41.5
11
108.5
21
24.5
0
LINE
8
0
10
108.5
20
24.5
11
146.5
21
24.5
0
LINE
8
0
10
146.5
20
-105.5
11
167.5
21
-105.5
0
LINE
8
0
10
167.5
20
-105.5
11
167.5
21
-103
0
LINE
8
0
10
146.5
20
-96.5
11
146.5
21
-105.5
0
LINE
8
0
10
146.5
20
-96.5
11
136.5
21
-96.5
0
LINE
8
0
10
136.5
20
-96.5
11
136.5
21
-91.5
0
LINE
8
0
10
146.5
20
29.5
11
165.5
21
29.5
0
LINE
8
0
10
146.5
20
29.5
11
146.5
21
24.5
0
LINE
8
0
10
167.5
20
-103
11
186.5
21
-103
0
LINE
8
0
10
186.5
20
-103
11
186.5
21
-94
0
LINE
8
0
10
196.5
20
-86.5
11
196.5
21
-94
0
LINE
8
0
10
196.5
20
-94
11
186.5
21
-94
0
LINE
8
0
10
186.5
20
29.5
11
186.5
21
32
0
LINE
8
0
10
186.5
20
32
11
165.5
21
32
0
LINE
8
0
10
165.5
20
32
11
165.5
21
29.5
0
LINE
8
0
10
196.5
20
-86.5
11
203.521905
21
-86.5
0
LINE
8
0
10
205.5
20
-79.1176489
11
205.5
21
-77.5
0
LINE
8
0
10
205.9334477
20
-77.5
11
205.5
21
-77.5
0
LINE
8
0
10
205.5
20
27
11
205.5
21
29.5
0
LINE
8
0
10
186.5
20
29.5
11
205.5
21
29.5
0
LINE
8
0
10
217.3823511
20
-70
11
224.5
21
-70
0
LINE
8
0
10
224.5
20
-70
11
224.5
21
-61
0
LINE
8
0
10
234.5
20
-53.5
11
234.5
21
-61
0
LINE
8
0
10
234.5
20
-61
11
224.5
21
-61
0
LINE
8
0
10
224.5
20
24.5
11
224.5
21
27
0
LINE
8
0
10
205.5
20
27
11
224.5
21
27
0
LINE
8
0
10
234.5
20
-53.5
11
243.5
21
-53.5
0
LINE
8
0
10
243.5
20
-53.5
11
243.5
21
1
0
LINE
8
0
10
243.5
20
22
11
243.5
21
24.5
0
LINE
8
0
10
224.5
20
24.5
11
243.5
21
24.5
0
LINE
8
0
10
243.5
20
1
11
262.5
21
1
0
LINE
8
0
10
262.5
20
1
11
262.5
21
22
0
LINE
8
0
10
243.5
20
22
11
262.5
21
22
0
LINE
8
0
10
203.1401789
20
-87.9246212
11
223.4246212
21
-93.3598211
0
LINE
8
0
10
223.4246212
20
-93.3598211
11
224.454131
21
-89.5176381
0
LINE
8
0
10
226.4318515
20
-82.1366846
11
228.8598211
21
-73.0753788
0
LINE
8
0
10
228.8598211
20
-73.0753788
11
217.3823511
21
-70
0
LINE
8
0
10
203.521905
20
-86.5
11
203.1401789
21
-87.9246212
0
LINE
8
0
10
205.9334477
20
-77.5
11
205.5
21
-79.1176489
0
LINE
8
0
10
240.9279082
20
-99.0287778
11
251.4279082
21
-80.8422444
0
LINE
8
0
10
251.4279082
20
-80.8422444
11
233.2413748
21
-70.3422444
0
LINE
8
0
10
233.2413748
20
-70.3422444
11
226.4318515
21
-82.1366846
0
LINE
8
0
10
224.454131
20
-89.5176381
11
240.9279082
21
-99.0287778
0
LINE
8
0
10
18
20
65.5
11
39
21
65.5
0
LINE
8
0
10
39
20
65.5
11
39
21
86.5
0
LINE
8
0
10
39
20
86.5
11
18
21
86.5
0
LINE
8
0
10
18
20
86.5
11
18
21
65.5
0
ENDSEC
0
EOF
